<?xml version="1.0" encoding="UTF-8" standalone="no"?>
<!-- Created with Inkscape (http://www.inkscape.org/) -->

<svg
   width="179.69493mm"
   height="167.09743mm"
   viewBox="0 0 179.69493 167.09743"
   version="1.1"
   id="svg17412"
   inkscape:version="1.2.1 (9c6d41e410, 2022-07-14)"
   sodipodi:docname="synoptic_view_3_funny.svg"
   xmlns:inkscape="http://www.inkscape.org/namespaces/inkscape"
   xmlns:sodipodi="http://sodipodi.sourceforge.net/DTD/sodipodi-0.dtd"
   xmlns="http://www.w3.org/2000/svg"
   xmlns:svg="http://www.w3.org/2000/svg">
  <sodipodi:namedview
     id="namedview17414"
     pagecolor="#ffffff"
     bordercolor="#000000"
     borderopacity="0.25"
     inkscape:showpageshadow="2"
     inkscape:pageopacity="0.0"
     inkscape:pagecheckerboard="0"
     inkscape:deskcolor="#d1d1d1"
     inkscape:document-units="mm"
     showgrid="false"
     inkscape:zoom="0.5946522"
     inkscape:cx="306.90208"
     inkscape:cy="549.90127"
     inkscape:window-width="1920"
     inkscape:window-height="1137"
     inkscape:window-x="-8"
     inkscape:window-y="-8"
     inkscape:window-maximized="1"
     inkscape:current-layer="layer1" />
  <defs
     id="defs17409" />
  <g
     inkscape:label="Layer 1"
     inkscape:groupmode="layer"
     id="layer1"
     transform="translate(-10.839753,-24.138716)">
    <path
       sodipodi:type="spiral"
       style="fill:#d45500;fill-rule:evenodd;stroke:#00ff00;stroke-width:1.68855;stroke-linejoin:bevel;stroke-dasharray:none"
       id="path17949"
       sodipodi:cx="94.326851"
       sodipodi:cy="102.33572"
       sodipodi:expansion="1"
       sodipodi:revolution="5.0999999"
       sodipodi:radius="48.620541"
       sodipodi:argument="-17.795635"
       sodipodi:t0="0"
       d="m 94.326851,102.33572 c 0.708622,1.24665 -1.330851,1.57026 -2.072015,1.17777 -2.00851,-1.06361 -1.598424,-3.898293 -0.283538,-5.321804 2.352025,-2.546329 6.4341,-1.797194 8.571602,0.610702 3.13686,3.533682 2.01205,9.007992 -1.504944,11.821392 -4.687603,3.74982 -11.595884,2.23438 -15.071182,-2.39918 -4.373307,-5.83087 -2.460703,-14.190572 3.29342,-18.320976 6.969013,-5.002472 16.789106,-2.689353 21.570766,4.187659 5.63502,8.104317 2.91947,19.390047 -5.0819,24.820557 -9.237897,6.26974 -21.992586,3.15057 -28.070347,-5.97614 -6.905939,-10.37034 -3.38235,-24.596252 6.870376,-31.320137 11.502008,-7.543183 27.200741,-3.614626 34.569931,7.764615 8.18119,12.633112 3.84727,29.805852 -8.65885,37.819722 -13.763809,8.81979 -32.411433,4.0802 -41.069518,-9.55309 C 57.931819,102.75263 63.077296,82.629424 77.837984,73.327502 93.862289,63.22927 115.46162,68.780817 125.40708,84.669073 136.145,101.82331 130.18724,124.89921 113.17127,135.48796 94.887262,146.8658 70.334436,140.50171 59.10259,122.35791 47.084647,102.94426 53.855154,76.914211 73.126879,65.03944 93.670064,52.381226 121.17759,59.558234 133.69514,79.957968 c 13.29862,21.672632 5.71505,50.657842 -15.81277,63.818052 -8.63479,5.27856 -18.879132,7.68953 -28.962696,6.87863"
       transform="matrix(0.77102224,0,0,0.7735022,22.809996,24.399277)" />
    <path
       sodipodi:type="star"
       style="fill:#deaa87;stroke:#1a1a1a;stroke-width:1"
       id="path18003"
       inkscape:flatsided="false"
       sodipodi:sides="3"
       sodipodi:cx="12.458262"
       sodipodi:cy="73.414757"
       sodipodi:r1="28.697636"
       sodipodi:r2="14.348816"
       sodipodi:arg1="0.51914611"
       sodipodi:arg2="1.5663437"
       inkscape:rounded="0"
       inkscape:randomized="0"
       d="M 37.374788,87.652771 12.522152,87.76343 -12.330482,87.874094 1.6711705e-6,66.29575 12.330482,44.717406 24.852634,66.18509 Z"
       inkscape:transform-center-x="6.4563044"
       inkscape:transform-center-y="-0.81579848"
       transform="rotate(26.99583,-66.206047,154.04996)" />
    <path
       sodipodi:type="star"
       style="fill:#a02c2c;stroke:#1a1a1a;stroke-width:1"
       id="path18005"
       inkscape:flatsided="false"
       sodipodi:sides="3"
       sodipodi:cx="22.246899"
       sodipodi:cy="111.23449"
       sodipodi:r1="28.045212"
       sodipodi:r2="14.022604"
       sodipodi:arg1="0.84151895"
       sodipodi:arg2="1.8887165"
       inkscape:rounded="0"
       inkscape:randomized="0"
       d="M 40.934292,132.14657 17.86355,124.55439 -5.2071935,116.96221 12.903203,100.77845 31.013597,84.59469 l 4.960346,23.77594 z"
       inkscape:transform-center-x="-5.6214901"
       inkscape:transform-center-y="1.5548868"
       transform="rotate(65.418208,6.0391672,177.4215)" />
    <path
       sodipodi:type="star"
       style="fill:#ffff00;stroke:#1a1a1a;stroke-width:1"
       id="path18007"
       inkscape:flatsided="false"
       sodipodi:sides="3"
       sodipodi:cx="144.1599"
       sodipodi:cy="74.749573"
       sodipodi:r1="28.920965"
       sodipodi:r2="14.460482"
       sodipodi:arg1="0.92729522"
       sodipodi:arg2="1.9744928"
       inkscape:rounded="0"
       inkscape:randomized="0"
       d="m 161.51248,97.886345 -23.03295,-9.838693 -23.03296,-9.838691 20.03704,-15.027774 20.03703,-15.027775 2.99592,24.866467 z"
       inkscape:transform-center-x="-6.9231546"
       inkscape:transform-center-y="0.35211629"
       transform="rotate(65.474601,134.05137,99.343736)" />
    <path
       sodipodi:type="star"
       style="fill:#008000;stroke:#1a1a1a;stroke-width:1"
       id="path18009"
       inkscape:flatsided="false"
       sodipodi:sides="3"
       sodipodi:cx="46.273548"
       sodipodi:cy="31.590593"
       sodipodi:r1="31.815397"
       sodipodi:r2="15.907698"
       sodipodi:arg1="0.73593359"
       sodipodi:arg2="1.7831311"
       inkscape:rounded="0"
       inkscape:randomized="0"
       d="M 69.85526,52.947615 42.921115,47.141029 15.986969,41.334444 34.482693,20.912084 52.978416,0.48972109 61.416837,26.718668 Z"
       inkscape:transform-center-x="4.3563161"
       inkscape:transform-center-y="-1.0368676"
       transform="matrix(1.1864347,0.22545308,-0.02436402,0.91359535,64.54486,12.592727)" />
    <path
       sodipodi:type="star"
       style="fill:#ff00ff;stroke:#1a1a1a;stroke-width:1"
       id="path18011"
       inkscape:flatsided="false"
       sodipodi:sides="3"
       sodipodi:cx="71.190071"
       sodipodi:cy="143.27002"
       sodipodi:r1="33.78307"
       sodipodi:r2="16.891535"
       sodipodi:arg1="0.70148354"
       sodipodi:arg2="1.7486811"
       inkscape:rounded="0"
       inkscape:randomized="0"
       d="m 96.996472,165.07198 -28.795326,-5.17697 -28.795327,-5.17697 18.881052,-22.349 18.881051,-22.349 9.914275,27.52597 z"
       inkscape:transform-center-x="5.629883"
       inkscape:transform-center-y="-3.087238"
       transform="rotate(9.2769102,23.484947,541.82857)" />
    <path
       sodipodi:type="star"
       style="fill:#6c5d53;stroke:#1a1a1a;stroke-width:1"
       id="path18013"
       inkscape:flatsided="false"
       sodipodi:sides="3"
       sodipodi:cx="12.458262"
       sodipodi:cy="73.414757"
       sodipodi:r1="28.697636"
       sodipodi:r2="14.348816"
       sodipodi:arg1="0.51914611"
       sodipodi:arg2="1.5663437"
       inkscape:rounded="0"
       inkscape:randomized="0"
       d="M 37.374788,87.652771 12.522152,87.76343 -12.330482,87.874094 1.6711705e-6,66.29575 12.330482,44.717406 24.852634,66.18509 Z"
       inkscape:transform-center-x="-1.4224791"
       inkscape:transform-center-y="5.9071624"
       transform="rotate(65.944515,41.239402,102.00766)" />
  </g>
</svg>
