<?xml version="1.0" encoding="UTF-8" standalone="no"?>
<!-- Created with Inkscape (http://www.inkscape.org/) -->

<svg
   width="184.17336mm"
   height="199.74632mm"
   viewBox="0 0 184.17336 199.74632"
   version="1.1"
   id="svg20390"
   inkscape:version="1.2.1 (9c6d41e410, 2022-07-14)"
   sodipodi:docname="synoptic_view_5_funny.svg"
   xmlns:inkscape="http://www.inkscape.org/namespaces/inkscape"
   xmlns:sodipodi="http://sodipodi.sourceforge.net/DTD/sodipodi-0.dtd"
   xmlns="http://www.w3.org/2000/svg"
   xmlns:svg="http://www.w3.org/2000/svg">
  <sodipodi:namedview
     id="namedview20392"
     pagecolor="#ffffff"
     bordercolor="#000000"
     borderopacity="0.25"
     inkscape:showpageshadow="2"
     inkscape:pageopacity="0.0"
     inkscape:pagecheckerboard="0"
     inkscape:deskcolor="#d1d1d1"
     inkscape:document-units="mm"
     showgrid="false"
     inkscape:zoom="0.5946522"
     inkscape:cx="248.04415"
     inkscape:cy="386.78071"
     inkscape:window-width="1920"
     inkscape:window-height="1137"
     inkscape:window-x="-8"
     inkscape:window-y="-8"
     inkscape:window-maximized="1"
     inkscape:current-layer="layer1" />
  <defs
     id="defs20387" />
  <g
     inkscape:label="Layer 1"
     inkscape:groupmode="layer"
     id="layer1"
     transform="translate(-10.47158,-24.264525)">
    <path
       style="fill:#ff00ff;stroke:#00ff00;stroke-width:1.304;stroke-linejoin:bevel"
       id="path20563"
       sodipodi:type="arc"
       sodipodi:cx="83.425865"
       sodipodi:cy="93.659439"
       sodipodi:rx="11.790856"
       sodipodi:ry="18.019987"
       sodipodi:start="0"
       sodipodi:end="3.1378029"
       sodipodi:arc-type="slice"
       d="M 95.216722,93.659439 A 11.790856,18.019987 0 0 1 83.448207,111.67939 11.790856,18.019987 0 0 1 71.635093,93.72773 l 11.790772,-0.06829 z" />
    <path
       style="fill:#916f6f;stroke:#00ff00;stroke-width:1.304;stroke-linejoin:bevel"
       id="path20565"
       sodipodi:type="arc"
       sodipodi:cx="125.02757"
       sodipodi:cy="149.72162"
       sodipodi:rx="16.462704"
       sodipodi:ry="15.795297"
       sodipodi:start="0"
       sodipodi:end="3.1378029"
       sodipodi:arc-type="slice"
       d="m 141.49028,149.72162 a 16.462704,15.795297 0 0 1 -16.43151,15.79527 16.462704,15.795297 0 0 1 -16.49378,-15.73541 l 16.46258,-0.0599 z" />
    <path
       style="fill:#008080;stroke:#00ff00;stroke-width:1.304;stroke-linejoin:bevel"
       id="path20567"
       sodipodi:type="arc"
       sodipodi:cx="28.476028"
       sodipodi:cy="171.3011"
       sodipodi:rx="17.352581"
       sodipodi:ry="12.9032"
       sodipodi:start="0"
       sodipodi:end="3.1378029"
       sodipodi:arc-type="slice"
       d="M 45.828609,171.3011 A 17.352581,12.9032 0 0 1 28.508909,184.20428 17.352581,12.9032 0 0 1 11.123572,171.35 l 17.352456,-0.0489 z" />
    <path
       style="fill:#ffcc00;stroke:#00ff00;stroke-width:1.304;stroke-linejoin:bevel"
       id="path20569"
       sodipodi:type="arc"
       sodipodi:cx="148.83174"
       sodipodi:cy="68.742912"
       sodipodi:rx="13.125669"
       sodipodi:ry="14.015546"
       sodipodi:start="0"
       sodipodi:end="3.1378029"
       sodipodi:arc-type="slice"
       d="m 161.95741,68.742912 a 13.125669,14.015546 0 0 1 -13.1008,14.015521 13.125669,14.015546 0 0 1 -13.15044,-13.962405 l 13.12557,-0.05312 z" />
    <path
       style="fill:#ff8080;stroke:#00ff00;stroke-width:1.304;stroke-linejoin:bevel"
       id="path20571"
       sodipodi:type="arc"
       sodipodi:cx="27.80862"
       sodipodi:cy="63.848598"
       sodipodi:rx="11.790856"
       sodipodi:ry="11.790856"
       sodipodi:start="0"
       sodipodi:end="3.1378029"
       sodipodi:arc-type="slice"
       d="M 39.599477,63.848598 A 11.790856,11.790856 0 0 1 27.830963,75.639434 11.790856,11.790856 0 0 1 16.017849,63.893283 l 11.790771,-0.04468 z" />
    <path
       style="fill:#280b0b;stroke:#00ff00;stroke-width:1.304;stroke-linejoin:bevel"
       id="path20573"
       sodipodi:type="arc"
       sodipodi:cx="77.641678"
       sodipodi:cy="149.94409"
       sodipodi:rx="8.2313519"
       sodipodi:ry="11.123448"
       sodipodi:start="0"
       sodipodi:end="3.1378029"
       sodipodi:arc-type="slice"
       d="m 85.87303,149.94409 a 8.2313519,11.123448 0 0 1 -8.215755,11.12343 8.2313519,11.123448 0 0 1 -8.24689,-11.08127 l 8.231293,-0.0422 z" />
    <path
       style="fill:#ffffff;stroke:#00ff00;stroke-width:1.304;stroke-linejoin:bevel"
       id="path20575"
       sodipodi:type="arc"
       sodipodi:cx="142.60262"
       sodipodi:cy="210.45564"
       sodipodi:rx="18.019987"
       sodipodi:ry="12.9032"
       sodipodi:start="0"
       sodipodi:end="3.1378029"
       sodipodi:arc-type="slice"
       d="m 160.6226,210.45564 a 18.019987,12.9032 0 0 1 -17.98584,12.90318 18.019987,12.9032 0 0 1 -18.054,-12.85428 l 18.01986,-0.0489 z" />
    <path
       style="fill:#280b0b;stroke:#00ff00;stroke-width:1.304;stroke-linejoin:bevel"
       id="path20577"
       sodipodi:type="arc"
       sodipodi:cx="180.42233"
       sodipodi:cy="119.68831"
       sodipodi:rx="13.570607"
       sodipodi:ry="10.678511"
       sodipodi:start="0"
       sodipodi:end="3.1378029"
       sodipodi:arc-type="slice"
       d="m 193.99294,119.68831 a 13.570607,10.678511 0 0 1 -13.54489,10.67849 13.570607,10.678511 0 0 1 -13.59623,-10.63802 l 13.57051,-0.0405 z" />
    <path
       style="fill:#008000;stroke:#00ff00;stroke-width:1.304;stroke-linejoin:bevel"
       id="path20579"
       sodipodi:type="arc"
       sodipodi:cx="89.654999"
       sodipodi:cy="40.044415"
       sodipodi:rx="4.6718488"
       sodipodi:ry="7.1190071"
       sodipodi:start="0"
       sodipodi:end="3.1378029"
       sodipodi:arc-type="slice"
       d="m 94.326848,40.044415 a 4.6718488,7.1190071 0 0 1 -4.662997,7.118994 4.6718488,7.1190071 0 0 1 -4.680667,-7.092015 l 4.671815,-0.02698 z" />
    <path
       style="fill:#280b0b;stroke:#00ff00;stroke-width:1.304;stroke-linejoin:bevel"
       id="path20581"
       sodipodi:type="arc"
       sodipodi:cx="139.04311"
       sodipodi:cy="103.44807"
       sodipodi:rx="4.2269106"
       sodipodi:ry="4.6718488"
       sodipodi:start="0"
       sodipodi:end="3.1378029"
       sodipodi:arc-type="slice"
       d="m 143.27002,103.44807 a 4.2269106,4.6718488 0 0 1 -4.2189,4.67184 4.2269106,4.6718488 0 0 1 -4.23489,-4.65414 l 4.22688,-0.0177 z" />
    <path
       style="fill:#280b0b;stroke:#00ff00;stroke-width:1.304;stroke-linejoin:bevel"
       id="path20583"
       sodipodi:type="arc"
       sodipodi:cx="173.5258"
       sodipodi:cy="25.138994"
       sodipodi:rx="4.4493794"
       sodipodi:ry="4.6718488"
       sodipodi:start="0"
       sodipodi:end="3.1378029"
       sodipodi:arc-type="slice"
       d="m 177.97518,25.138994 a 4.4493794,4.6718488 0 0 1 -4.44095,4.671841 4.4493794,4.6718488 0 0 1 -4.45777,-4.654136 l 4.44934,-0.0177 z" />
    <path
       style="fill:#280b0b;stroke:#00ff00;stroke-width:1.304;stroke-linejoin:bevel"
       id="path20585"
       sodipodi:type="arc"
       sodipodi:cx="97.886345"
       sodipodi:cy="70.077728"
       sodipodi:rx="3.5595036"
       sodipodi:ry="3.3370347"
       sodipodi:start="0"
       sodipodi:end="3.1378029"
       sodipodi:arc-type="slice"
       d="m 101.44585,70.077728 a 3.5595036,3.3370347 0 0 1 -3.55276,3.337029 3.5595036,3.3370347 0 0 1 -3.566223,-3.324382 l 3.559478,-0.01265 z" />
    <path
       style="fill:#280b0b;stroke:#00ff00;stroke-width:1.304;stroke-linejoin:bevel"
       id="path20587"
       sodipodi:type="arc"
       sodipodi:cx="37.37479"
       sodipodi:cy="24.916525"
       sodipodi:rx="5.7841935"
       sodipodi:ry="8.8987589"
       sodipodi:start="0"
       sodipodi:end="3.1378029"
       sodipodi:arc-type="slice"
       d="m 43.158984,24.916525 a 5.7841935,8.8987589 0 0 1 -5.773233,8.898743 5.7841935,8.8987589 0 0 1 -5.795113,-8.865019 l 5.784152,-0.03372 z" />
  </g>
</svg>
