<?xml version="1.0" encoding="UTF-8" standalone="no"?>
<!-- Created with Inkscape (http://www.inkscape.org/) -->

<svg
   width="210mm"
   height="297mm"
   viewBox="0 0 793.7008 1122.5197"
   version="1.1"
   id="svg418"
   inkscape:version="1.2.1 (9c6d41e410, 2022-07-14)"
   sodipodi:docname="synoptic_view_2.svg"
   xml:space="preserve"
   xmlns:inkscape="http://www.inkscape.org/namespaces/inkscape"
   xmlns:sodipodi="http://sodipodi.sourceforge.net/DTD/sodipodi-0.dtd"
   xmlns="http://www.w3.org/2000/svg"
   xmlns:svg="http://www.w3.org/2000/svg"><sodipodi:namedview
     id="namedview420"
     pagecolor="#ffffff"
     bordercolor="#000000"
     borderopacity="0.25"
     inkscape:showpageshadow="2"
     inkscape:pageopacity="0.0"
     inkscape:pagecheckerboard="0"
     inkscape:deskcolor="#d1d1d1"
     inkscape:document-units="px"
     showgrid="false"
     inkscape:zoom="0.68528151"
     inkscape:cx="825.20831"
     inkscape:cy="548.67962"
     inkscape:window-width="1920"
     inkscape:window-height="1137"
     inkscape:window-x="1912"
     inkscape:window-y="-8"
     inkscape:window-maximized="1"
     inkscape:current-layer="layer1"
     showguides="true"><sodipodi:guide
       position="406.40235,1255.665"
       orientation="1,0"
       id="guide32974"
       inkscape:locked="false" /><sodipodi:guide
       position="683.66067,1423.4793"
       orientation="1,0"
       id="guide38834"
       inkscape:locked="false" /></sodipodi:namedview><defs
     id="defs415"><inkscape:perspective
       sodipodi:type="inkscape:persp3d"
       inkscape:vp_x="-90.318081 : 456.00138 : 1"
       inkscape:vp_y="752.93145 : 2939.3652 : 0"
       inkscape:vp_z="1154.4183 : 526.27739 : 1"
       inkscape:persp3d-origin="494.78008 : 345.6408 : 1"
       id="perspective13249" /><clipPath
       clipPathUnits="userSpaceOnUse"
       id="clipPath54365"><rect
         style="opacity:0.35061;fill:#008000;stroke:#00ff00;stroke-width:1.698;stroke-dasharray:none"
         id="rect54367"
         width="998.13013"
         height="303.52487"
         x="688.76801"
         y="236.3992" /></clipPath></defs><g
     inkscape:label="Layer 1"
     inkscape:groupmode="layer"
     id="layer1"
     transform="translate(-2.9184863,163.43648)"><rect
       style="display:inline;fill:#ff0000;stroke-width:1.01465"
       id="xray"
       width="712.49152"
       height="4.7564392"
       x="71.019516"
       y="230.94188"
       clickable="False" /><rect
       style="display:inline;fill:#008000;stroke:#00ff00;stroke-width:3.11811;stroke-dasharray:none;stroke-dashoffset:0"
       id="motor1"
       width="43.846817"
       height="104.64166"
       x="162.46712"
       y="181.51935"
       model="y:ior1;width:ampli"
       model_scales="y:-50;width:1"
       clickable="True"
       style_model_when_hovered="stroke:#FF0000"
       model_move="translate(0,int(&lt;ior1&gt;)*100)"
       move_when_left_clicked="not &lt;ior1&gt;" /><rect
       style="display:inline;fill:#008000;stroke:#00ff00;stroke-width:3.11811;stroke-dasharray:none;stroke-dashoffset:0"
       id="motor2"
       width="43.846817"
       height="104.64166"
       x="286.98709"
       y="181.51935"
       model="y:ior2;width:ampli"
       model_scales="y:-50;width:1"
       style_model_when_hovered="stroke:#FF0000" /><rect
       style="display:inline;fill:#008000;stroke:#00ff00;stroke-width:3.11811;stroke-dasharray:none;stroke-dashoffset:0"
       id="motor3"
       width="43.846817"
       height="104.64166"
       x="411.50705"
       y="181.51935"
       model="y:ior3"
       model_scales="y:-50;width:1"
       clickable="True"
       style_model_when_hovered="stroke:#FF0000" /><rect
       style="display:inline;fill:#008000;stroke:#00ff00;stroke-width:3.11811;stroke-dasharray:none;stroke-dashoffset:0"
       id="motor4"
       width="43.846817"
       height="104.64166"
       x="536.02704"
       y="181.51935"
       model="y:ior1"
       model_scales="y:-50;width:1"
       clickable="True"
       style_model_when_hovered="stroke:#FF0000" /><rect
       style="display:inline;fill:#008000;stroke:#00ff00;stroke-width:1.698;stroke-dasharray:none"
       id="slit-top"
       width="43.846817"
       height="43.997059"
       x="690.28333"
       y="167.91956"
       clickable="True"
       model="y:offset"
       model_scales="y:-5"
       step_move="offset:-1"
       style_model_when_hovered="stroke:#FF0000" /><rect
       style="display:inline;fill:#008000;stroke:#00ff00;stroke-width:1.698;stroke-dasharray:none"
       id="slit-bottom"
       width="43.846817"
       height="43.997059"
       x="690.28333"
       y="254.72357"
       clickable="True"
       step_move="offset:1"
       model="y:offset"
       model_scales="y:5"
       style_model_when_hovered="stroke:#FF0000"
       model_move="translate(0, &lt;offset&gt;*5)"
       move_when_left_clicked="&lt;offset&gt;+1" /><path
       sodipodi:type="spiral"
       style="display:inline;fill:#00ffff;fill-rule:evenodd;stroke:#008000;stroke-width:1.46577;stroke-dasharray:none;stroke-dashoffset:0"
       id="path887"
       sodipodi:cx="105.71186"
       sodipodi:cy="162.02859"
       sodipodi:expansion="1"
       sodipodi:revolution="3"
       sodipodi:radius="39.297115"
       sodipodi:argument="-20.540735"
       sodipodi:t0="0"
       d="m 105.71186,162.02859 c -0.23662,-1.95603 2.51996,-1.28399 3.25106,-0.39327 1.98124,2.4138 -0.0427,5.78892 -2.46451,6.89539 -4.33213,1.97922 -9.108311,-1.13628 -10.539727,-5.32229 -2.100661,-6.14314 2.229733,-12.48451 8.180087,-14.18406 7.93087,-2.26523 15.88241,3.32114 17.82839,11.03787 2.4488,9.71071 -4.41111,19.29105 -13.89566,21.47272 -11.487057,2.6423 -22.705802,-5.50015 -25.117054,-16.75344 -2.841578,-13.26161 6.588611,-26.12438 19.611224,-28.76139 15.03512,-3.04453 29.54551,7.67668 32.40572,22.46901 3.24996,16.80798 -8.76448,32.96843 -25.32679,36.05006 -18.580409,3.45712 -36.392649,-9.8521 -39.694391,-28.18458 -3.665559,-20.35254 10.939562,-39.81785 31.042361,-43.33873"
       transform="matrix(2.2458133,1.8943394,-1.7582873,2.0845181,512.1616,-42.860977)"
       style_model_when_hovered="stroke:#FF0000" /><g
       sodipodi:type="inkscape:box3d"
       id="g13251"
       style="fill:#ff00ff;stroke:#00ff00;stroke-width:1.4;stroke-dasharray:none;stroke-dashoffset:0"
       inkscape:perspectiveID="#perspective13249"
       inkscape:corner0="3.8895225 : 0.16243256 : 0 : 1"
       inkscape:corner7="1.8250573 : 0.12947345 : 0.54847828 : 1"
       style_model_when_hovered="stroke:#FF0000"><path
         sodipodi:type="inkscape:box3dside"
         id="path13263"
         style="fill:#e9e9ff;fill-rule:evenodd;stroke:#00ff00;stroke-width:1.4;stroke-linejoin:round;stroke-dasharray:none"
         inkscape:box3dsidetype="11"
         d="m 168.22921,428.48956 156.43432,-45.64741 -7.35606,28.71731 -153.6417,34.74526 z"
         points="324.66353,382.84215 317.30747,411.55946 163.66577,446.30472 168.22921,428.48956 "
         style_model_when_hovered="stroke:#FF0000" /><path
         sodipodi:type="inkscape:box3dside"
         id="path13253"
         style="fill:#353564;fill-rule:evenodd;stroke:#00ff00;stroke-width:1.4;stroke-linejoin:round;stroke-dasharray:none"
         inkscape:box3dsidetype="6"
         d="m 57.276853,428.00539 -5.075332,19.81356 111.464249,-1.51423 4.56344,-17.81516 z"
         points="52.201521,447.81895 163.66577,446.30472 168.22921,428.48956 57.276853,428.00539 "
         style_model_when_hovered="stroke:#FF0000" /><path
         sodipodi:type="inkscape:box3dside"
         id="path13255"
         style="fill:#4d4d9f;fill-rule:evenodd;stroke:#00ff00;stroke-width:1.4;stroke-linejoin:round;stroke-dasharray:none"
         inkscape:box3dsidetype="5"
         d="m 57.276853,428.00539 105.725107,-54.86357 161.66157,9.70033 -156.43432,45.64741 z"
         points="163.00196,373.14182 324.66353,382.84215 168.22921,428.48956 57.276853,428.00539 "
         style_model_when_hovered="stroke:#FF0000" /><path
         sodipodi:type="inkscape:box3dside"
         id="path13261"
         style="fill:#afafde;fill-rule:evenodd;stroke:#00ff00;stroke-width:1.4;stroke-linejoin:round;stroke-dasharray:none"
         inkscape:box3dsidetype="13"
         d="m 52.201521,447.81895 102.016209,-40.38443 163.08974,4.12494 -153.6417,34.74526 z"
         points="154.21773,407.43452 317.30747,411.55946 163.66577,446.30472 52.201521,447.81895 "
         style_model_when_hovered="stroke:#FF0000" /><path
         sodipodi:type="inkscape:box3dside"
         id="path13259"
         style="fill:#d7d7ff;fill-rule:evenodd;stroke:#00ff00;stroke-width:1.4;stroke-linejoin:round;stroke-dasharray:none"
         inkscape:box3dsidetype="14"
         d="m 163.00196,373.14182 -8.78423,34.2927 163.08974,4.12494 7.35606,-28.71731 z"
         points="154.21773,407.43452 317.30747,411.55946 324.66353,382.84215 163.00196,373.14182 "
         style_model_when_hovered="stroke:#FF0000" /><path
         sodipodi:type="inkscape:box3dside"
         id="path13257"
         style="fill:#8686bf;fill-rule:evenodd;stroke:#00ff00;stroke-width:1.4;stroke-linejoin:round;stroke-dasharray:none"
         inkscape:box3dsidetype="3"
         d="m 57.276853,428.00539 105.725107,-54.86357 -8.78423,34.2927 -102.016209,40.38443 z"
         points="163.00196,373.14182 154.21773,407.43452 52.201521,447.81895 57.276853,428.00539 "
         style_model_when_hovered="stroke:#FF0000" /></g><path
       sodipodi:type="star"
       style="fill:#0000ff;stroke:#00ff00;stroke-width:0.47625;stroke-dasharray:none;stroke-dashoffset:0"
       id="path13317"
       inkscape:flatsided="false"
       sodipodi:sides="5"
       sodipodi:cx="147.56828"
       sodipodi:cy="103.51805"
       sodipodi:r1="22.193108"
       sodipodi:r2="11.096554"
       sodipodi:arg1="0.78539816"
       sodipodi:arg2="1.4137167"
       inkscape:rounded="0"
       inkscape:randomized="0"
       d="m 163.26118,119.21095 -13.95701,-4.73296 -11.81135,8.81426 0.18836,-14.73647 -12.03277,-8.5095 14.07342,-4.374677 4.37469,-14.073425 8.50949,12.032771 14.73648,-0.188358 -8.81427,11.811339 z"
       inkscape:transform-center-x="1.0728368"
       inkscape:transform-center-y="-1.0728363"
       transform="matrix(3.7795276,0,0,3.7795276,-289.51842,253.17851)"
       style_model_when_hovered="stroke:#FF0000" /><path
       sodipodi:type="spiral"
       style="fill:none;fill-rule:evenodd;stroke:#e6e6e6;stroke-width:0.264583"
       id="path13319"
       sodipodi:cx="39.3699"
       sodipodi:cy="92.780807"
       sodipodi:expansion="1"
       sodipodi:revolution="3"
       sodipodi:radius="13.823394"
       sodipodi:argument="-18.050074"
       sodipodi:t0="0"
       d="m 39.3699,92.780807 c 0.483133,0.496938 -0.431501,0.896425 -0.825943,0.802999 -1.068912,-0.253179 -1.221941,-1.629046 -0.780055,-2.454883 0.790431,-1.47723 2.791036,-1.623413 4.083825,-0.757111 1.89722,1.271332 2.037045,3.968883 0.734167,5.712765 -1.736531,2.324321 -5.152372,2.455875 -7.341706,0.711224 -2.755053,-2.195466 -2.877397,-6.338554 -0.68828,-8.970648 2.651313,-3.187818 7.526252,-3.300477 10.599588,-0.665336 3.621821,3.105422 3.724537,8.714896 0.642393,12.22853 -3.558458,4.056633 -9.904171,4.149253 -13.857471,0.619453 -4.49199,-4.010789 -4.574418,-11.093894 -0.596505,-15.486416 4.462619,-4.927747 12.283931,-4.99992 17.115353,-0.573561 5.363794,4.914097 5.425669,13.474216 0.550617,18.744297"
       transform="matrix(3.7795276,0,0,3.7795276,42.856766,203.01137)"
       style_model_when_hovered="stroke:#FF0000" /></g></svg>
