<?xml version="1.0" encoding="UTF-8" standalone="no"?>
<!-- Created with Inkscape (http://www.inkscape.org/) -->

<svg
   width="210mm"
   height="297mm"
   viewBox="0 0 210 297"
   version="1.1"
   id="svg1"
   inkscape:version="1.3-dev (c4ce85683, 2023-01-04)"
   sodipodi:docname="drawing.svg"
   xmlns:inkscape="http://www.inkscape.org/namespaces/inkscape"
   xmlns:sodipodi="http://sodipodi.sourceforge.net/DTD/sodipodi-0.dtd"
   xmlns="http://www.w3.org/2000/svg"
   xmlns:svg="http://www.w3.org/2000/svg">
  <sodipodi:namedview
     id="namedview1"
     pagecolor="#ffffff"
     bordercolor="#000000"
     borderopacity="0.25"
     inkscape:showpageshadow="2"
     inkscape:pageopacity="0.0"
     inkscape:pagecheckerboard="0"
     inkscape:deskcolor="#d1d1d1"
     inkscape:document-units="mm"
     inkscape:zoom="0.84096521"
     inkscape:cx="398.94635"
     inkscape:cy="490.50781"
     inkscape:window-width="1920"
     inkscape:window-height="1137"
     inkscape:window-x="1912"
     inkscape:window-y="-8"
     inkscape:window-maximized="1"
     inkscape:current-layer="layer2" />
  <defs
     id="defs1">
    <inkscape:perspective
       sodipodi:type="inkscape:persp3d"
       inkscape:vp_x="-43.751997 : 184.37583 : 1"
       inkscape:vp_y="0 : 537.14357 : 0"
       inkscape:vp_z="354.51212 : 184.37583 : 1"
       inkscape:persp3d-origin="155.38006 : 157.78722 : 1"
       id="perspective2" />
  </defs>
  <g
     inkscape:label="Layer 1"
     inkscape:groupmode="layer"
     id="layer1"
     style="display:inline"
     model="tango">
    <rect
       style="fill:#ff7f2a;stroke-width:0.264583"
       id="rect1"
       width="58.204449"
       height="26.742584"
       x="-38.489693"
       y="187.52158"
       model="tango"
       transform="rotate(-37.223176)" />
    <ellipse
       style="fill:#ff00ff;stroke-width:0.257378"
       id="path1"
       cx="-163.44821"
       cy="41.958027"
       rx="39.327332"
       ry="M 70.789197,68.266492 163.87017,1.8090591 203.23591,18.856411 93.665209,71.010195 Z"
       transform="rotate(-90.02806)"
       model="tango" />
    <path
       sodipodi:type="spiral"
       style="fill:none;fill-rule:evenodd;stroke:#000000;stroke-width:0.264583"
       id="path8"
       sodipodi:cx="128.04979"
       sodipodi:cy="215.8284"
       sodipodi:expansion="1"
       sodipodi:revolution="3"
       sodipodi:radius="31.457144"
       sodipodi:argument="-18.314281"
       sodipodi:t0="0"
       d="m 128.04979,215.8284 c 1.3566,0.8045 -0.41515,2.22559 -1.33713,2.25477 -2.49852,0.0791 -3.65231,-2.85233 -3.1724,-4.92903 0.85844,-3.71473 5.16626,-5.22476 8.52092,-4.09004 4.9231,1.66525 6.83334,7.50781 5.00767,12.11282 -2.43332,6.13776 -9.85865,8.45669 -15.70471,5.92531 -7.35668,-3.18548 -10.08755,-12.21382 -6.84295,-19.29662 3.92966,-8.57821 14.57139,-11.72273 22.88851,-7.76057 9.80145,4.66927 13.36064,16.93044 8.67822,26.48041 -5.40605,11.02581 -19.29051,15.00035 -30.07231,9.59584 -12.25096,-6.14094 -16.641327,-21.65127 -10.51348,-33.6642 6.87452,-13.47669 24.01255,-18.28323 37.2561,-11.43112 14.70285,7.60715 19.92582,26.37422 12.34875,40.848" />
  </g>
  <g
     inkscape:groupmode="layer"
     id="layer2"
     inkscape:label="Layer 2">
    <g
       sodipodi:type="inkscape:box3d"
       id="g2"
       style="fill:#ff7f2a"
       inkscape:perspectiveID="#perspective2"
       inkscape:corner0="2.476431 : 0.31418752 : 0 : 1"
       inkscape:corner7="0.32435469 : 0.10783334 : 0.25 : 1">
      <path
         sodipodi:type="inkscape:box3dside"
         id="path7"
         style="fill:#e9e9ff;fill-rule:evenodd;stroke:none;stroke-width:1.0667;stroke-linejoin:round"
         inkscape:box3dsidetype="11"
         d="M 36.404616,74.470995 145.97532,22.317211 V 92.721815 L 36.404616,104.21576 Z"
         points="145.97532,22.317211 145.97532,92.721815 36.404616,104.21576 36.404616,74.470995 "
         model="tango/test/1/attr" />
      <path
         sodipodi:type="inkscape:box3dside"
         id="path2"
         style="fill:#353564;fill-rule:evenodd;stroke:none;stroke-linejoin:round"
         inkscape:box3dsidetype="6"
         d="m 13.528604,71.727292 v 31.883798 l 22.876012,0.60467 V 74.470995 Z"
         points="13.528604,103.61109 36.404616,104.21576 36.404616,74.470995 13.528604,71.727292 "
         model="tango" />
      <path
         sodipodi:type="inkscape:box3dside"
         id="path3"
         style="fill:#4d4d9f;fill-rule:evenodd;stroke:none;stroke-linejoin:round"
         inkscape:box3dsidetype="5"
         d="M 13.528604,71.727292 106.60958,5.269859 145.97532,22.317211 36.404616,74.470995 Z"
         points="106.60958,5.269859 145.97532,22.317211 36.404616,74.470995 13.528604,71.727292 "
         model="tango" />
      <path
         sodipodi:type="inkscape:box3dside"
         id="path6"
         style="fill:#afafde;fill-rule:evenodd;stroke:none;stroke-linejoin:round"
         inkscape:box3dsidetype="13"
         d="M 13.528604,103.61109 106.60958,88.964823 145.97532,92.721815 36.404616,104.21576 Z"
         points="106.60958,88.964823 145.97532,92.721815 36.404616,104.21576 13.528604,103.61109 "
         model="tango" />
      <path
         sodipodi:type="inkscape:box3dside"
         id="path5"
         style="fill:#d7d7ff;fill-rule:evenodd;stroke:none;stroke-width:0.751252;stroke-linejoin:round"
         inkscape:box3dsidetype="14"
         d="m 106.60958,5.269859 v 83.694964 l 39.36574,3.756992 V 22.317211 Z"
         points="106.60958,88.964823 145.97532,92.721815 145.97532,22.317211 106.60958,5.269859 "
         model="tango" />
      <path
         sodipodi:type="inkscape:box3dside"
         id="path4"
         style="fill:#8686bf;fill-rule:evenodd;stroke:none;stroke-width:0.704277;stroke-linejoin:round"
         inkscape:box3dsidetype="3"
         d="M 13.528604,71.727292 106.60958,5.269859 V 88.964823 L 13.528604,103.61109 Z"
         points="106.60958,5.269859 106.60958,88.964823 13.528604,103.61109 13.528604,71.727292 "
         model="tango" />
    </g>
    <path
       style="fill:none;fill-rule:evenodd;stroke:#000000;stroke-width:0.0978195px;stroke-linecap:butt;stroke-linejoin:miter;stroke-opacity:1"
       d="m 66.707123,134.95449 40.010257,19.40388"
       id="path9"
       inkscape:connector-type="polyline"
       inkscape:connector-curvature="0" />
    <path
       style="fill:#ff00ff;stroke-width:0.264583"
       id="path10"
       inkscape:transform-center-x="15.357964"
       inkscape:transform-center-y="-6.9654008"
       transform="rotate(-51.567723)"
       sodipodi:type="arc"
       sodipodi:cx="2.7572525"
       sodipodi:cy="208.14284"
       sodipodi:rx="32.56303"
       sodipodi:ry="29.829309"
       sodipodi:start="3.5605877"
       sodipodi:end="1.0255534"
       sodipodi:arc-type="arc"
       d="M -26.989019,196.007 A 32.56303,29.829309 0 0 1 5.9297901,178.45544 32.56303,29.829309 0 0 1 34.507979,201.52175 32.56303,29.829309 0 0 1 19.64528,233.64694"
       sodipodi:open="true" />
  </g>
</svg>
